HIERARCHY
ROOT Hips
{
	OFFSET 0.00000 0.00000 0.00000
	CHANNELS 6 Xposition Yposition Zposition Zrotation Yrotation Xrotation 
	JOINT LHipJoint
	{
		OFFSET 0 0 0
		CHANNELS 3 Zrotation Yrotation Xrotation
		JOINT LeftUpLeg
		{
			OFFSET 1.41496 -1.84582 0.78394
			CHANNELS 3 Zrotation Yrotation Xrotation
			JOINT LeftLeg
			{
				OFFSET 2.58040 -7.08960 0.00000
				CHANNELS 3 Zrotation Yrotation Xrotation
				JOINT LeftFoot
				{
					OFFSET 2.64719 -7.27309 0.00000
					CHANNELS 3 Zrotation Yrotation Xrotation
					JOINT LeftToeBase
					{
						OFFSET 0.20718 -0.56921 2.20259
						CHANNELS 3 Zrotation Yrotation Xrotation
						End Site
						{
							OFFSET 0.00000 -0.00000 1.14243
						}
					}
				}
			}
		}
	}
	JOINT RHipJoint
	{
		OFFSET 0 0 0
		CHANNELS 3 Zrotation Yrotation Xrotation
		JOINT RightUpLeg
		{
			OFFSET -1.40551 -1.84582 0.78394
			CHANNELS 3 Zrotation Yrotation Xrotation
			JOINT RightLeg
			{
				OFFSET -2.56572 -7.04926 0.00000
				CHANNELS 3 Zrotation Yrotation Xrotation
				JOINT RightFoot
				{
					OFFSET -2.57974 -7.08778 0.00000
					CHANNELS 3 Zrotation Yrotation Xrotation
					JOINT RightToeBase
					{
						OFFSET -0.26704 -0.73369 2.20815
						CHANNELS 3 Zrotation Yrotation Xrotation
						End Site
						{
							OFFSET -0.00000 -0.00000 1.16246
						}
					}
				}
			}
		}
	}
	JOINT LowerBack
	{
		OFFSET 0 0 0
		CHANNELS 3 Zrotation Yrotation Xrotation
		JOINT Spine
		{
			OFFSET -0.04690 2.05196 -0.07017
			CHANNELS 3 Zrotation Yrotation Xrotation
			JOINT Spine1
			{
				OFFSET 0.04085 2.05260 0.00800
				CHANNELS 3 Zrotation Yrotation Xrotation
				JOINT Neck
				{
					OFFSET 0 0 0
					CHANNELS 3 Zrotation Yrotation Xrotation
					JOINT Neck1
					{
						OFFSET -0.03582 1.80995 0.19301
						CHANNELS 3 Zrotation Yrotation Xrotation
						JOINT Head
						{
							OFFSET 0.00952 1.80195 -0.36389
							CHANNELS 3 Zrotation Yrotation Xrotation
							End Site
							{
								OFFSET 0.00392 1.85062 -0.14494
							}
						}
					}
				}
				JOINT LeftShoulder
				{
					OFFSET 0 0 0
					CHANNELS 3 Zrotation Yrotation Xrotation
					JOINT LeftArm
					{
						OFFSET 3.55224 1.39726 -0.13667
						CHANNELS 3 Zrotation Yrotation Xrotation
						JOINT LeftForeArm
						{
							OFFSET 5.14507 -0.00000 -0.00000
							CHANNELS 3 Zrotation Yrotation Xrotation
							JOINT LeftHand
							{
								OFFSET 3.50646 -0.00000 0.00000
								CHANNELS 3 Zrotation Yrotation Xrotation
								JOINT LeftFingerBase
								{
									OFFSET 0 0 0
									CHANNELS 3 Zrotation Yrotation Xrotation
									JOINT LeftHandIndex1
									{
										OFFSET 0.62997 -0.00000 0.00000
										CHANNELS 3 Zrotation Yrotation Xrotation
										End Site
										{
											OFFSET 0.50790 -0.00000 0.00000
										}
									}
								}
								JOINT LThumb
								{
									OFFSET 0 0 0
									CHANNELS 3 Zrotation Yrotation Xrotation
									End Site
									{
										OFFSET 0.51565 -0.00000 0.51565
									}
								}
							}
						}
					}
				}
				JOINT RightShoulder
				{
					OFFSET 0 0 0
					CHANNELS 3 Zrotation Yrotation Xrotation
					JOINT RightArm
					{
						OFFSET -3.06467 1.61290 -0.28813
						CHANNELS 3 Zrotation Yrotation Xrotation
						JOINT RightForeArm
						{
							OFFSET -5.23200 -0.00000 -0.00000
							CHANNELS 3 Zrotation Yrotation Xrotation
							JOINT RightHand
							{
								OFFSET -3.65641 -0.00000 0.00000
								CHANNELS 3 Zrotation Yrotation Xrotation
								JOINT RightFingerBase
								{
									OFFSET 0 0 0
									CHANNELS 3 Zrotation Yrotation Xrotation
									JOINT RightHandIndex1
									{
										OFFSET -0.65681 -0.00000 0.00000
										CHANNELS 3 Zrotation Yrotation Xrotation
										End Site
										{
											OFFSET -0.52953 -0.00000 0.00000
										}
									}
								}
								JOINT RThumb
								{
									OFFSET 0 0 0
									CHANNELS 3 Zrotation Yrotation Xrotation
									End Site
									{
										OFFSET -0.53762 -0.00000 0.53762
									}
								}
							}
						}
					}
				}
			}
		}
	}
}
MOTION
Frames: 11
Frame Time: 0.0465116
0.00 0.00 0.00 171.6690 -0.8344 -152.0820 0.0000 0.0000 0.0000 -27.6880 -12.1680 -6.9817 7.7677 15.9457 51.7215 2.1157 -0.1943 27.6169 0.9078 6.0714 16.9918 0.0000 0.0000 0.0000 9.9647 7.9963 -70.4116 -13.8438 -19.0660 71.7269 -0.9362 3.1855 -17.4913 -0.3136 3.5999 -9.9536 -4.9615 -1.8279 17.8692 1.0201 -3.5568 1.0170 4.8177 -1.5893 -8.5594 -5.7384 -2.4276 -20.6777 1.1200 -0.8277 -3.6019 1.3484 0.1565 2.4564 -0.0000 0.0000 0.0000 -68.8609 -20.8458 30.4765 145.9575 -44.1162 -105.8574 -0.0000 0.0000 -17.2863 23.2529 -1.8087 -0.7770 -7.1250 0.0000 -0.0000 -2.5711 28.0081 1.0636 -0.0000 0.0000 0.0000 90.8290 -48.2839 14.9879 -88.0200 59.9852 -58.2853 0.0000 -0.0000 -17.2194 -32.3510 13.4141 -8.3595 7.1250 -0.0000 -0.0000 -3.3808 -14.2344 -2.4500
0.00 0.00 0.00 173.6600 -1.2986 -153.0950 0.0000 0.0000 0.0000 -24.2062 -11.9952 -15.3640 12.6278 18.6436 67.9656 1.3905 0.2361 22.2328 1.3161 7.2662 20.5063 0.0000 0.0000 0.0000 15.2827 5.4822 -62.3657 -13.1672 -18.8417 69.6440 -1.2669 3.5217 -20.4061 -0.2341 3.1138 -8.5957 -3.2745 -1.3870 18.3060 1.8877 -2.5918 1.2079 4.5899 -1.1821 -8.7307 -5.3064 -2.2082 -19.3966 0.4978 -0.7089 -4.2488 1.0599 0.1968 1.9854 0.0000 -0.0000 0.0000 -77.7706 -11.4690 37.5313 132.7537 -51.8227 -96.0081 -0.0000 0.0000 -16.9729 24.1283 -2.1962 -0.9834 -7.1250 0.0000 -0.0000 -1.8916 27.5721 0.8016 0.0000 -0.0000 0.0000 88.5047 -36.6387 21.5399 -88.0356 59.9854 -58.2988 0.0000 -0.0000 -16.0210 -31.9894 13.4263 -8.2521 7.1250 -0.0000 -0.0000 -3.1354 -14.2769 -2.2688
0.00 0.00 0.00 175.7590 -1.3743 -153.7840 0.0000 0.0000 0.0000 -20.7458 -11.7228 -22.1770 16.2470 19.6589 78.9667 0.9635 0.9098 18.2704 1.6541 8.1051 23.0339 0.0000 0.0000 0.0000 18.8228 4.5870 -56.3019 -12.5224 -18.6029 67.6354 -1.6671 3.8071 -23.4873 -0.3234 3.6554 -10.1093 -1.7288 -1.0272 18.7733 2.5721 -1.7632 1.1323 4.2738 -0.8298 -9.1767 -4.7676 -1.9506 -18.6824 -0.1173 -0.5583 -4.2392 0.7695 0.2230 1.8471 -0.0000 0.0000 0.0000 -82.8653 -5.6625 37.9239 117.2182 -57.0068 -83.3348 -0.0000 0.0000 -16.7192 25.6214 -2.7562 -1.3211 -7.1250 0.0000 -0.0000 -0.7472 26.9234 0.3279 -0.0000 0.0000 0.0000 86.5488 -27.9644 26.8649 -88.9113 59.9955 -59.0572 0.0000 -0.0000 -16.3964 -31.7254 13.2255 -8.0506 7.1250 -0.0000 -0.0000 -2.9801 -14.5488 -2.1388
0.00 0.00 0.00 178.0470 -0.9349 -154.2880 0.0000 0.0000 0.0000 -16.9457 -11.1957 -29.9294 19.7556 19.9986 89.2853 0.5749 1.5189 13.8817 2.0057 8.8779 25.4140 0.0000 0.0000 0.0000 21.8013 4.5528 -50.1284 -11.8251 -18.3157 65.4334 -2.0877 3.9082 -26.3899 -0.5173 4.6098 -12.7990 -0.0898 -0.5976 19.1668 3.0984 -0.8080 0.8718 3.6873 -0.4285 -9.7755 -4.0254 -1.6031 -18.1014 -0.9591 -0.3311 -3.8932 0.3805 0.2606 1.8473 -0.0000 -0.0000 0.0000 -86.5606 -0.2358 35.8475 96.0525 -59.8611 -65.2391 -0.0000 0.0000 -16.2988 27.8210 -3.3817 -1.7829 -7.1250 0.0000 -0.0000 0.9156 26.1572 -0.4183 -0.0000 -0.0000 0.0000 84.9221 -18.8827 32.0422 -91.7376 59.9886 -61.5047 0.0000 -0.0000 -16.0552 -31.4568 13.0999 -7.8941 7.1250 -0.0000 -0.0000 -2.8122 -14.7338 -2.0070
0.00 0.00 0.00 181.5360 1.3989 -154.3830 0.0000 0.0000 0.0000 -10.3917 -9.9897 -47.4394 25.0695 19.3723 104.9728 0.0722 0.7125 4.8720 2.1273 9.1264 26.1915 0.0000 0.0000 0.0000 25.2176 5.6650 -38.0092 -10.2467 -17.5462 60.3096 -2.6957 4.1137 -30.1198 -1.0086 6.3902 -17.9209 2.1072 -0.0825 18.8307 3.3556 1.0002 0.0417 2.1883 0.5844 -10.5961 -2.5976 -0.6230 -17.4817 -2.5817 0.5459 -2.4124 -0.3331 0.5179 2.2359 -0.0000 -0.0000 0.0000 -88.9956 12.2791 30.9658 64.2249 -57.3345 -37.8779 -0.0000 0.0000 -16.0227 30.7685 -2.9190 -1.7366 -7.1250 0.0000 -0.0000 3.1750 26.5809 -1.4208 -0.0000 -0.0000 0.0000 83.2197 -1.0604 40.6989 -105.4545 59.0780 -73.3426 0.0000 -0.0000 -12.9193 -30.5925 13.2371 -7.7097 7.1250 -0.0000 -0.0000 -2.2105 -14.7039 -1.5782
0.00 0.00 0.00 182.5360 2.7467 -154.5010 0.0000 0.0000 0.0000 -6.1013 -11.4480 -63.5731 26.7701 18.8636 110.1619 -0.0055 -2.8422 -1.6454 1.2055 6.9657 19.6137 0.0000 0.0000 0.0000 26.1447 4.1369 -24.8650 -7.7636 -15.9426 51.7068 -2.6308 4.2828 -29.7081 -1.6490 8.0931 -22.9971 3.3136 0.2479 17.4860 2.6860 1.5011 -0.6741 0.6458 0.6968 -10.5931 -1.4372 0.1984 -17.6188 -2.9216 1.2935 -0.6519 -0.5957 0.7627 2.8863 -0.0000 -0.0000 0.0000 -86.7770 29.2404 31.9560 64.5100 -57.3966 -38.1179 -0.0000 0.0000 -16.9053 29.7578 -3.4408 -1.9653 -7.1250 0.0000 -0.0000 2.3810 26.0168 -1.0962 -0.0000 -0.0000 0.0000 82.6941 13.9240 45.6664 -125.0612 54.8031 -89.8340 0.0000 -0.0000 -13.1979 -29.7037 14.0672 -7.8943 7.1250 -0.0000 -0.0000 -1.5217 -13.8920 -1.1122
0.00 0.00 0.00 182.5650 2.2083 -155.1530 0.0000 0.0000 0.0000 -2.8143 -14.7782 -74.9315 24.8225 19.4330 104.2292 0.0361 -7.9274 -6.2856 0.1924 2.8249 7.7917 0.0000 0.0000 0.0000 26.2038 1.0843 -10.3861 -4.6591 -12.9893 39.3283 -1.2946 3.4836 -20.6438 -2.1010 9.0734 -26.0252 4.7755 0.7973 15.4345 1.6365 2.2340 -1.1411 -1.4654 0.9132 -9.8277 -1.3809 -0.5469 -17.2542 -2.0350 0.1365 0.6051 -0.4087 0.1564 3.2489 0.0000 -0.0000 0.0000 -80.9620 45.1293 37.5703 78.1472 -59.4624 -49.7537 -0.0000 0.0000 -19.3863 27.5644 -4.5125 -2.3518 -7.1250 0.0000 -0.0000 0.6826 24.8923 -0.3319 0.0000 -0.0000 0.0000 78.7804 24.2451 42.9176 -141.1570 47.3693 -102.4168 0.0000 -0.0000 -16.5330 -29.3988 14.7361 -8.1562 7.1250 -0.0000 -0.0000 -1.2466 -13.1838 -0.9297
0.00 0.00 0.00 182.8690 1.4562 -155.8100 0.0000 0.0000 0.0000 -1.3093 -16.4967 -79.2783 21.3215 19.9581 93.8664 0.0955 -11.2043 -9.2080 0.0096 -0.6320 -1.7368 0.0000 0.0000 0.0000 26.1410 -0.6862 -0.0178 -2.6074 -10.0307 29.0762 -0.0562 -1.4538 -5.2619 -1.4971 7.7290 -21.8938 6.0099 1.6532 13.6433 1.1055 3.3966 -1.2216 -2.9144 1.4215 -8.7195 -2.2154 -1.2810 -17.3427 -1.3500 -1.5051 1.8052 -0.1945 -0.9908 3.6972 0.0000 -0.0000 0.0000 -75.3445 53.4332 42.1929 86.8280 -59.9619 -57.2533 -0.0000 0.0000 -20.8362 26.2754 -4.9643 -2.4463 -7.1250 0.0000 -0.0000 -0.2969 24.4468 0.1474 0.0000 -0.0000 0.0000 71.8707 28.9091 35.3874 -148.6653 42.0103 -107.7067 0.0000 -0.0000 -19.3428 -28.7539 14.7766 -7.9667 7.1250 -0.0000 -0.0000 -0.8097 -13.2358 -0.6029
0.00 0.00 0.00 183.3580 0.3977 -156.4410 0.0000 0.0000 0.0000 -1.2333 -17.3794 -80.0706 16.6679 19.7317 80.2155 0.1174 -12.8162 -10.4468 0.2515 -3.2266 -8.9103 0.0000 0.0000 0.0000 26.3304 -1.9393 8.2087 -1.3180 -7.2714 20.5219 -0.3403 -11.0678 12.1212 -0.3139 3.6018 -9.9591 7.1315 2.3380 12.2688 0.8027 4.3410 -1.1753 -3.9584 1.8654 -7.6963 -2.9048 -2.3426 -18.3131 -0.5409 -2.7114 3.4818 0.0544 -1.5416 3.9732 0.0000 -0.0000 0.0000 -71.7978 58.3809 43.7630 92.2118 -59.9815 -61.9153 -0.0000 0.0000 -19.4067 25.8163 -5.5724 -2.6895 -7.1250 0.0000 -0.0000 -0.6565 23.7942 0.3359 0.0000 -0.0000 0.0000 64.3966 31.2887 27.1131 -151.8139 39.2870 -109.7587 0.0000 -0.0000 -20.9315 -27.5540 14.5559 -7.4707 7.1250 -0.0000 -0.0000 -0.0236 -13.6555 -0.0174
0.00 0.00 0.00 184.0240 -1.5567 -157.4570 0.0000 0.0000 0.0000 -3.9365 -16.9565 -77.0380 10.9385 17.9049 62.5817 0.0288 -12.0680 -8.8583 0.6515 -5.1630 -14.3740 0.0000 0.0000 0.0000 27.8460 -2.7499 10.9646 -1.6959 -8.2017 23.3283 -0.9932 -16.2447 19.7501 -0.0000 -0.0392 0.1077 8.1324 2.5159 12.0296 0.5125 4.4867 -1.0069 -4.8142 1.8335 -7.2555 -3.1866 -2.8971 -19.6042 0.8811 -3.4526 3.9612 0.4558 -1.8202 4.3552 0.0000 -0.0000 0.0000 -73.9432 59.6177 38.6777 96.4969 -59.8399 -65.6234 -0.0000 0.0000 -16.5138 26.1279 -6.0741 -2.9711 -7.1250 0.0000 -0.0000 -0.4421 23.2204 0.2320 0.0000 -0.0000 0.0000 60.8889 30.1626 25.0341 -150.3090 40.6270 -108.7922 0.0000 -0.0000 -19.9899 -25.8781 14.1666 -6.7707 7.1250 -0.0000 -0.0000 1.0777 -14.3102 0.7781
0.00 0.00 0.00 184.0190 -3.6678 -159.3820 0.0000 0.0000 0.0000 -9.0487 -14.9633 -71.5816 8.5176 16.4871 54.4064 -0.0732 -10.5449 -6.1700 0.7146 -5.4023 -15.0596 0.0000 0.0000 0.0000 29.1910 -3.8577 5.3957 -5.0176 -13.4036 40.8987 -0.1347 -19.0753 14.5628 -0.1712 -2.6655 7.3489 7.4952 1.7630 13.1148 0.5571 3.4338 -0.3292 -4.2753 1.3511 -7.3181 -3.3134 -2.7364 -20.2984 2.1083 -3.3554 3.3139 0.8649 -1.7161 4.2792 -0.0000 -0.0000 0.0000 -81.2965 53.9651 31.4035 98.1925 -59.7449 -67.0888 -0.0000 0.0000 -15.7510 27.4408 -6.4687 -3.3479 -7.1250 0.0000 -0.0000 0.5083 22.6994 -0.2728 -0.0000 -0.0000 0.0000 65.4045 23.4046 32.9662 -143.5594 45.8138 -104.1624 0.0000 -0.0000 -16.4883 -25.2320 13.3807 -6.2239 7.1250 -0.0000 -0.0000 1.4608 -15.2497 1.0255
